<svg xmlns="http://www.w3.org/2000/svg" viewBox="0 0 1600 1200" width="1600" height="1200" role="img" preserveAspectRatio="xMidYMid slice"><defs>
    <linearGradient id="sky" x1="0" y1="0" x2="0" y2="1">
      <stop offset="0" stop-color="#37426a"/>
      <stop offset="0.55" stop-color="#8a5f73"/>
      <stop offset="1" stop-color="#d98a55"/>
    </linearGradient>
    <radialGradient id="glow" cx="30.0%" cy="60.0%" r="55%">
      <stop offset="0" stop-color="#f4a962" stop-opacity="0.95"/>
      <stop offset="0.5" stop-color="#f4a962" stop-opacity="0.35"/>
      <stop offset="1" stop-color="#f4a962" stop-opacity="0"/>
    </radialGradient>
    <radialGradient id="vig" cx="50%" cy="42%" r="78%">
      <stop offset="0.55" stop-color="#0a0a0a" stop-opacity="0"/>
      <stop offset="1" stop-color="#0a0a0a" stop-opacity="0.34"/>
    </radialGradient>
    <filter id="soft"><feGaussianBlur stdDeviation="26"/></filter>
    <filter id="grain"><feTurbulence type="fractalNoise" baseFrequency="0.9" numOctaves="2" stitchTiles="stitch"/><feColorMatrix type="saturate" values="0"/></filter></defs><rect width="1600" height="1200" fill="url(#sky)"/><rect width="1600" height="1200" fill="url(#glow)"/><circle cx="480" cy="720" r="220" fill="#ffdda6" opacity="0.35" filter="url(#soft)"/><circle cx="480" cy="720" r="92.39999999999999" fill="#ffdda6" opacity="0.95"/><path d="M-40,1200 L-40,642 L150,628 L340,577 L530,659 L720,676 L910,574 L1100,648 L1290,678 L1480,593 L1640,1200 Z" fill="#c48f68" opacity="0.7"/><path d="M-40,1200 L-40,664 L150,708 L340,628 L530,733 L720,621 L910,688 L1100,604 L1290,561 L1480,683 L1640,1200 Z" fill="#9a6b53" opacity="0.9"/><path d="M-40,1200 L-40,751 L150,820 L340,659 L530,780 L720,768 L910,822 L1100,648 L1290,650 L1480,803 L1640,1200 Z" fill="#5e463c"/><path d="M832,1200 Q640,1032 800,894" stroke="#ffdda6" stroke-width="26" fill="none" opacity="0.28" stroke-linecap="round"/><rect width="1600" height="1200" fill="url(#vig)"/><rect width="1600" height="1200" fill="#000" opacity="0.06" filter="url(#grain)"/></svg>
