<svg xmlns="http://www.w3.org/2000/svg" viewBox="0 0 1600 1200" width="1600" height="1200" role="img" preserveAspectRatio="xMidYMid slice"><defs>
    <linearGradient id="sky" x1="0" y1="0" x2="0" y2="1">
      <stop offset="0" stop-color="#25263a"/>
      <stop offset="0.55" stop-color="#553b50"/>
      <stop offset="1" stop-color="#c56f3c"/>
    </linearGradient>
    <radialGradient id="glow" cx="62.0%" cy="52.0%" r="55%">
      <stop offset="0" stop-color="#e08a44" stop-opacity="0.95"/>
      <stop offset="0.5" stop-color="#e08a44" stop-opacity="0.35"/>
      <stop offset="1" stop-color="#e08a44" stop-opacity="0"/>
    </radialGradient>
    <radialGradient id="vig" cx="50%" cy="42%" r="78%">
      <stop offset="0.55" stop-color="#0a0a0a" stop-opacity="0"/>
      <stop offset="1" stop-color="#0a0a0a" stop-opacity="0.34"/>
    </radialGradient>
    <filter id="soft"><feGaussianBlur stdDeviation="26"/></filter>
    <filter id="grain"><feTurbulence type="fractalNoise" baseFrequency="0.9" numOctaves="2" stitchTiles="stitch"/><feColorMatrix type="saturate" values="0"/></filter></defs><rect width="1600" height="1200" fill="url(#sky)"/><rect width="1600" height="1200" fill="url(#glow)"/><circle cx="992" cy="624" r="170" fill="#ffce8f" opacity="0.35" filter="url(#soft)"/><circle cx="992" cy="624" r="71.39999999999999" fill="#ffce8f" opacity="0.95"/><path d="M-40,1200 L-40,643 L150,560 L340,593 L530,543 L720,676 L910,647 L1100,586 L1290,603 L1480,601 L1640,1200 Z" fill="#3a3346" opacity="0.7"/><path d="M-40,1200 L-40,729 L150,655 L340,648 L530,707 L720,566 L910,568 L1100,566 L1290,736 L1480,700 L1640,1200 Z" fill="#2a2533" opacity="0.9"/><rect x="-20" y="583" width="113" height="351" fill="#191521"/><rect x="-12" y="633" width="9" height="13" fill="#f4b978" opacity="0.85"/><rect x="-12" y="837" width="9" height="13" fill="#f4b978" opacity="0.85"/><rect x="14" y="735" width="9" height="13" fill="#2B6CB0" opacity="0.85"/><rect x="14" y="803" width="9" height="13" fill="#f4b978" opacity="0.85"/><rect x="14" y="837" width="9" height="13" fill="#f4b978" opacity="0.85"/><rect x="14" y="871" width="9" height="13" fill="#f4b978" opacity="0.85"/><rect x="40" y="599" width="9" height="13" fill="#f4b978" opacity="0.85"/><rect x="40" y="769" width="9" height="13" fill="#f4b978" opacity="0.85"/><rect x="40" y="803" width="9" height="13" fill="#f4b978" opacity="0.85"/><rect x="66" y="633" width="9" height="13" fill="#f4b978" opacity="0.85"/><rect x="66" y="667" width="9" height="13" fill="#f4b978" opacity="0.85"/><rect x="66" y="701" width="9" height="13" fill="#f4b978" opacity="0.85"/><rect x="66" y="735" width="9" height="13" fill="#f4b978" opacity="0.85"/><rect x="66" y="837" width="9" height="13" fill="#f4b978" opacity="0.85"/><rect x="103" y="716" width="144" height="218" fill="#191521"/><rect x="111" y="732" width="9" height="13" fill="#2B6CB0" opacity="0.85"/><rect x="163" y="732" width="9" height="13" fill="#f4b978" opacity="0.85"/><rect x="189" y="732" width="9" height="13" fill="#f4b978" opacity="0.85"/><rect x="189" y="800" width="9" height="13" fill="#f4b978" opacity="0.85"/><rect x="189" y="868" width="9" height="13" fill="#f4b978" opacity="0.85"/><rect x="215" y="732" width="9" height="13" fill="#f4b978" opacity="0.85"/><rect x="215" y="766" width="9" height="13" fill="#f4b978" opacity="0.85"/><rect x="257" y="801" width="119" height="133" fill="#191521"/><rect x="265" y="851" width="9" height="13" fill="#f4b978" opacity="0.85"/><rect x="291" y="817" width="9" height="13" fill="#2B6CB0" opacity="0.85"/><rect x="343" y="851" width="9" height="13" fill="#f4b978" opacity="0.85"/><rect x="386" y="666" width="102" height="268" fill="#191521"/><rect x="394" y="682" width="9" height="13" fill="#f4b978" opacity="0.85"/><rect x="420" y="682" width="9" height="13" fill="#f4b978" opacity="0.85"/><rect x="420" y="716" width="9" height="13" fill="#f4b978" opacity="0.85"/><rect x="446" y="784" width="9" height="13" fill="#f4b978" opacity="0.85"/><rect x="446" y="818" width="9" height="13" fill="#f4b978" opacity="0.85"/><rect x="446" y="852" width="9" height="13" fill="#2B6CB0" opacity="0.85"/><rect x="498" y="603" width="119" height="331" fill="#191521"/><rect x="506" y="653" width="9" height="13" fill="#f4b978" opacity="0.85"/><rect x="506" y="687" width="9" height="13" fill="#f4b978" opacity="0.85"/><rect x="506" y="823" width="9" height="13" fill="#f4b978" opacity="0.85"/><rect x="532" y="687" width="9" height="13" fill="#2B6CB0" opacity="0.85"/><rect x="532" y="789" width="9" height="13" fill="#f4b978" opacity="0.85"/><rect x="532" y="823" width="9" height="13" fill="#f4b978" opacity="0.85"/><rect x="558" y="823" width="9" height="13" fill="#f4b978" opacity="0.85"/><rect x="584" y="687" width="9" height="13" fill="#f4b978" opacity="0.85"/><rect x="584" y="823" width="9" height="13" fill="#f4b978" opacity="0.85"/><rect x="627" y="639" width="143" height="295" fill="#191521"/><rect x="635" y="791" width="9" height="13" fill="#f4b978" opacity="0.85"/><rect x="635" y="825" width="9" height="13" fill="#f4b978" opacity="0.85"/><rect x="635" y="859" width="9" height="13" fill="#f4b978" opacity="0.85"/><rect x="661" y="655" width="9" height="13" fill="#f4b978" opacity="0.85"/><rect x="687" y="757" width="9" height="13" fill="#f4b978" opacity="0.85"/><rect x="713" y="689" width="9" height="13" fill="#f4b978" opacity="0.85"/><rect x="713" y="757" width="9" height="13" fill="#f4b978" opacity="0.85"/><rect x="739" y="723" width="9" height="13" fill="#2B6CB0" opacity="0.85"/><rect x="739" y="791" width="9" height="13" fill="#f4b978" opacity="0.85"/><rect x="739" y="859" width="9" height="13" fill="#2B6CB0" opacity="0.85"/><rect x="780" y="712" width="133" height="222" fill="#191521"/><rect x="814" y="864" width="9" height="13" fill="#f4b978" opacity="0.85"/><rect x="840" y="762" width="9" height="13" fill="#f4b978" opacity="0.85"/><rect x="840" y="830" width="9" height="13" fill="#f4b978" opacity="0.85"/><rect x="866" y="728" width="9" height="13" fill="#2B6CB0" opacity="0.85"/><rect x="866" y="762" width="9" height="13" fill="#f4b978" opacity="0.85"/><rect x="866" y="830" width="9" height="13" fill="#f4b978" opacity="0.85"/><rect x="923" y="650" width="65" height="284" fill="#191521"/><rect x="931" y="734" width="9" height="13" fill="#f4b978" opacity="0.85"/><rect x="957" y="802" width="9" height="13" fill="#f4b978" opacity="0.85"/><rect x="957" y="836" width="9" height="13" fill="#f4b978" opacity="0.85"/><rect x="998" y="639" width="111" height="295" fill="#191521"/><rect x="1006" y="859" width="9" height="13" fill="#f4b978" opacity="0.85"/><rect x="1032" y="791" width="9" height="13" fill="#2B6CB0" opacity="0.85"/><rect x="1058" y="689" width="9" height="13" fill="#f4b978" opacity="0.85"/><rect x="1058" y="791" width="9" height="13" fill="#f4b978" opacity="0.85"/><rect x="1084" y="655" width="9" height="13" fill="#f4b978" opacity="0.85"/><rect x="1084" y="825" width="9" height="13" fill="#f4b978" opacity="0.85"/><rect x="1119" y="549" width="135" height="385" fill="#191521"/><rect x="1127" y="599" width="9" height="13" fill="#f4b978" opacity="0.85"/><rect x="1127" y="633" width="9" height="13" fill="#f4b978" opacity="0.85"/><rect x="1127" y="667" width="9" height="13" fill="#2B6CB0" opacity="0.85"/><rect x="1127" y="803" width="9" height="13" fill="#f4b978" opacity="0.85"/><rect x="1127" y="871" width="9" height="13" fill="#f4b978" opacity="0.85"/><rect x="1153" y="667" width="9" height="13" fill="#2B6CB0" opacity="0.85"/><rect x="1153" y="701" width="9" height="13" fill="#f4b978" opacity="0.85"/><rect x="1153" y="735" width="9" height="13" fill="#2B6CB0" opacity="0.85"/><rect x="1153" y="769" width="9" height="13" fill="#2B6CB0" opacity="0.85"/><rect x="1153" y="871" width="9" height="13" fill="#f4b978" opacity="0.85"/><rect x="1179" y="667" width="9" height="13" fill="#f4b978" opacity="0.85"/><rect x="1179" y="701" width="9" height="13" fill="#f4b978" opacity="0.85"/><rect x="1179" y="735" width="9" height="13" fill="#f4b978" opacity="0.85"/><rect x="1179" y="769" width="9" height="13" fill="#f4b978" opacity="0.85"/><rect x="1205" y="565" width="9" height="13" fill="#f4b978" opacity="0.85"/><rect x="1205" y="769" width="9" height="13" fill="#f4b978" opacity="0.85"/><rect x="1231" y="871" width="9" height="13" fill="#f4b978" opacity="0.85"/><rect x="1264" y="613" width="122" height="321" fill="#191521"/><rect x="1272" y="867" width="9" height="13" fill="#2B6CB0" opacity="0.85"/><rect x="1298" y="663" width="9" height="13" fill="#f4b978" opacity="0.85"/><rect x="1298" y="867" width="9" height="13" fill="#f4b978" opacity="0.85"/><rect x="1324" y="629" width="9" height="13" fill="#f4b978" opacity="0.85"/><rect x="1324" y="799" width="9" height="13" fill="#f4b978" opacity="0.85"/><rect x="1350" y="629" width="9" height="13" fill="#f4b978" opacity="0.85"/><rect x="1350" y="697" width="9" height="13" fill="#f4b978" opacity="0.85"/><rect x="1396" y="676" width="141" height="258" fill="#191521"/><rect x="1404" y="692" width="9" height="13" fill="#f4b978" opacity="0.85"/><rect x="1404" y="828" width="9" height="13" fill="#f4b978" opacity="0.85"/><rect x="1404" y="862" width="9" height="13" fill="#2B6CB0" opacity="0.85"/><rect x="1430" y="862" width="9" height="13" fill="#f4b978" opacity="0.85"/><rect x="1456" y="726" width="9" height="13" fill="#f4b978" opacity="0.85"/><rect x="1456" y="794" width="9" height="13" fill="#f4b978" opacity="0.85"/><rect x="1482" y="692" width="9" height="13" fill="#f4b978" opacity="0.85"/><rect x="1482" y="862" width="9" height="13" fill="#f4b978" opacity="0.85"/><rect x="1508" y="760" width="9" height="13" fill="#f4b978" opacity="0.85"/><rect x="1508" y="828" width="9" height="13" fill="#f4b978" opacity="0.85"/><rect x="1547" y="737" width="85" height="197" fill="#191521"/><rect x="1555" y="821" width="9" height="13" fill="#f4b978" opacity="0.85"/><rect x="1581" y="787" width="9" height="13" fill="#2B6CB0" opacity="0.85"/><rect x="1607" y="787" width="9" height="13" fill="#f4b978" opacity="0.85"/><rect width="1600" height="1200" fill="url(#vig)"/><rect width="1600" height="1200" fill="#000" opacity="0.06" filter="url(#grain)"/></svg>
