<svg xmlns="http://www.w3.org/2000/svg" viewBox="0 0 1600 1200" width="1600" height="1200" role="img" preserveAspectRatio="xMidYMid slice"><defs>
    <linearGradient id="sky" x1="0" y1="0" x2="0" y2="1">
      <stop offset="0" stop-color="#25263a"/>
      <stop offset="0.55" stop-color="#553b50"/>
      <stop offset="1" stop-color="#c56f3c"/>
    </linearGradient>
    <radialGradient id="glow" cx="42.0%" cy="54.0%" r="55%">
      <stop offset="0" stop-color="#e08a44" stop-opacity="0.95"/>
      <stop offset="0.5" stop-color="#e08a44" stop-opacity="0.35"/>
      <stop offset="1" stop-color="#e08a44" stop-opacity="0"/>
    </radialGradient>
    <radialGradient id="vig" cx="50%" cy="42%" r="78%">
      <stop offset="0.55" stop-color="#0a0a0a" stop-opacity="0"/>
      <stop offset="1" stop-color="#0a0a0a" stop-opacity="0.34"/>
    </radialGradient>
    <filter id="soft"><feGaussianBlur stdDeviation="26"/></filter>
    <filter id="grain"><feTurbulence type="fractalNoise" baseFrequency="0.9" numOctaves="2" stitchTiles="stitch"/><feColorMatrix type="saturate" values="0"/></filter></defs><rect width="1600" height="1200" fill="url(#sky)"/><rect width="1600" height="1200" fill="url(#glow)"/><circle cx="672" cy="648" r="160" fill="#ffce8f" opacity="0.35" filter="url(#soft)"/><circle cx="672" cy="648" r="67.2" fill="#ffce8f" opacity="0.95"/><path d="M-40,1200 L-40,640 L150,670 L340,646 L530,643 L720,677 L910,659 L1100,658 L1290,605 L1480,554 L1640,1200 Z" fill="#3a3346" opacity="0.7"/><path d="M-40,1200 L-40,716 L150,592 L340,714 L530,675 L720,705 L910,716 L1100,608 L1290,638 L1480,596 L1640,1200 Z" fill="#2a2533" opacity="0.9"/><rect x="-20" y="606" width="91" height="328" fill="#191521"/><rect x="14" y="758" width="9" height="13" fill="#f4b978" opacity="0.85"/><rect x="40" y="622" width="9" height="13" fill="#f4b978" opacity="0.85"/><rect x="40" y="656" width="9" height="13" fill="#f4b978" opacity="0.85"/><rect x="40" y="724" width="9" height="13" fill="#f4b978" opacity="0.85"/><rect x="81" y="545" width="76" height="389" fill="#191521"/><rect x="89" y="561" width="9" height="13" fill="#f4b978" opacity="0.85"/><rect x="89" y="595" width="9" height="13" fill="#f4b978" opacity="0.85"/><rect x="89" y="629" width="9" height="13" fill="#f4b978" opacity="0.85"/><rect x="89" y="799" width="9" height="13" fill="#f4b978" opacity="0.85"/><rect x="115" y="561" width="9" height="13" fill="#f4b978" opacity="0.85"/><rect x="115" y="595" width="9" height="13" fill="#f4b978" opacity="0.85"/><rect x="115" y="731" width="9" height="13" fill="#f4b978" opacity="0.85"/><rect x="115" y="765" width="9" height="13" fill="#f4b978" opacity="0.85"/><rect x="115" y="799" width="9" height="13" fill="#f4b978" opacity="0.85"/><rect x="167" y="566" width="81" height="368" fill="#191521"/><rect x="175" y="684" width="9" height="13" fill="#2B6CB0" opacity="0.85"/><rect x="175" y="718" width="9" height="13" fill="#f4b978" opacity="0.85"/><rect x="175" y="820" width="9" height="13" fill="#f4b978" opacity="0.85"/><rect x="201" y="582" width="9" height="13" fill="#f4b978" opacity="0.85"/><rect x="201" y="616" width="9" height="13" fill="#f4b978" opacity="0.85"/><rect x="201" y="684" width="9" height="13" fill="#2B6CB0" opacity="0.85"/><rect x="201" y="718" width="9" height="13" fill="#2B6CB0" opacity="0.85"/><rect x="201" y="786" width="9" height="13" fill="#2B6CB0" opacity="0.85"/><rect x="227" y="582" width="9" height="13" fill="#f4b978" opacity="0.85"/><rect x="227" y="684" width="9" height="13" fill="#f4b978" opacity="0.85"/><rect x="227" y="718" width="9" height="13" fill="#f4b978" opacity="0.85"/><rect x="258" y="658" width="94" height="276" fill="#191521"/><rect x="266" y="674" width="9" height="13" fill="#2B6CB0" opacity="0.85"/><rect x="292" y="708" width="9" height="13" fill="#2B6CB0" opacity="0.85"/><rect x="292" y="810" width="9" height="13" fill="#f4b978" opacity="0.85"/><rect x="292" y="844" width="9" height="13" fill="#f4b978" opacity="0.85"/><rect x="318" y="708" width="9" height="13" fill="#f4b978" opacity="0.85"/><rect x="318" y="742" width="9" height="13" fill="#f4b978" opacity="0.85"/><rect x="362" y="589" width="129" height="345" fill="#191521"/><rect x="396" y="673" width="9" height="13" fill="#2B6CB0" opacity="0.85"/><rect x="396" y="707" width="9" height="13" fill="#2B6CB0" opacity="0.85"/><rect x="422" y="639" width="9" height="13" fill="#f4b978" opacity="0.85"/><rect x="422" y="673" width="9" height="13" fill="#f4b978" opacity="0.85"/><rect x="422" y="809" width="9" height="13" fill="#2B6CB0" opacity="0.85"/><rect x="448" y="605" width="9" height="13" fill="#f4b978" opacity="0.85"/><rect x="448" y="639" width="9" height="13" fill="#f4b978" opacity="0.85"/><rect x="448" y="741" width="9" height="13" fill="#f4b978" opacity="0.85"/><rect x="448" y="775" width="9" height="13" fill="#f4b978" opacity="0.85"/><rect x="501" y="607" width="85" height="327" fill="#191521"/><rect x="509" y="657" width="9" height="13" fill="#f4b978" opacity="0.85"/><rect x="509" y="725" width="9" height="13" fill="#f4b978" opacity="0.85"/><rect x="509" y="759" width="9" height="13" fill="#f4b978" opacity="0.85"/><rect x="509" y="827" width="9" height="13" fill="#f4b978" opacity="0.85"/><rect x="535" y="623" width="9" height="13" fill="#f4b978" opacity="0.85"/><rect x="535" y="759" width="9" height="13" fill="#f4b978" opacity="0.85"/><rect x="535" y="861" width="9" height="13" fill="#2B6CB0" opacity="0.85"/><rect x="561" y="623" width="9" height="13" fill="#f4b978" opacity="0.85"/><rect x="561" y="657" width="9" height="13" fill="#f4b978" opacity="0.85"/><rect x="561" y="759" width="9" height="13" fill="#f4b978" opacity="0.85"/><rect x="561" y="793" width="9" height="13" fill="#f4b978" opacity="0.85"/><rect x="561" y="827" width="9" height="13" fill="#f4b978" opacity="0.85"/><rect x="561" y="861" width="9" height="13" fill="#f4b978" opacity="0.85"/><rect x="596" y="800" width="97" height="134" fill="#191521"/><rect x="630" y="850" width="9" height="13" fill="#f4b978" opacity="0.85"/><rect x="703" y="573" width="67" height="361" fill="#191521"/><rect x="711" y="589" width="9" height="13" fill="#2B6CB0" opacity="0.85"/><rect x="711" y="623" width="9" height="13" fill="#f4b978" opacity="0.85"/><rect x="711" y="691" width="9" height="13" fill="#f4b978" opacity="0.85"/><rect x="711" y="793" width="9" height="13" fill="#f4b978" opacity="0.85"/><rect x="711" y="827" width="9" height="13" fill="#2B6CB0" opacity="0.85"/><rect x="737" y="589" width="9" height="13" fill="#2B6CB0" opacity="0.85"/><rect x="737" y="623" width="9" height="13" fill="#f4b978" opacity="0.85"/><rect x="780" y="746" width="65" height="188" fill="#191521"/><rect x="788" y="796" width="9" height="13" fill="#f4b978" opacity="0.85"/><rect x="814" y="762" width="9" height="13" fill="#f4b978" opacity="0.85"/><rect x="855" y="678" width="135" height="256" fill="#191521"/><rect x="863" y="796" width="9" height="13" fill="#f4b978" opacity="0.85"/><rect x="889" y="694" width="9" height="13" fill="#f4b978" opacity="0.85"/><rect x="889" y="796" width="9" height="13" fill="#f4b978" opacity="0.85"/><rect x="889" y="830" width="9" height="13" fill="#f4b978" opacity="0.85"/><rect x="889" y="864" width="9" height="13" fill="#2B6CB0" opacity="0.85"/><rect x="915" y="728" width="9" height="13" fill="#f4b978" opacity="0.85"/><rect x="915" y="830" width="9" height="13" fill="#f4b978" opacity="0.85"/><rect x="915" y="864" width="9" height="13" fill="#f4b978" opacity="0.85"/><rect x="941" y="728" width="9" height="13" fill="#2B6CB0" opacity="0.85"/><rect x="941" y="864" width="9" height="13" fill="#f4b978" opacity="0.85"/><rect x="967" y="728" width="9" height="13" fill="#f4b978" opacity="0.85"/><rect x="967" y="830" width="9" height="13" fill="#f4b978" opacity="0.85"/><rect x="967" y="864" width="9" height="13" fill="#f4b978" opacity="0.85"/><rect x="1000" y="780" width="140" height="154" fill="#191521"/><rect x="1112" y="796" width="9" height="13" fill="#f4b978" opacity="0.85"/><rect x="1112" y="830" width="9" height="13" fill="#f4b978" opacity="0.85"/><rect x="1150" y="603" width="105" height="331" fill="#191521"/><rect x="1158" y="653" width="9" height="13" fill="#2B6CB0" opacity="0.85"/><rect x="1158" y="721" width="9" height="13" fill="#2B6CB0" opacity="0.85"/><rect x="1158" y="755" width="9" height="13" fill="#f4b978" opacity="0.85"/><rect x="1158" y="789" width="9" height="13" fill="#2B6CB0" opacity="0.85"/><rect x="1184" y="653" width="9" height="13" fill="#2B6CB0" opacity="0.85"/><rect x="1184" y="687" width="9" height="13" fill="#f4b978" opacity="0.85"/><rect x="1210" y="653" width="9" height="13" fill="#f4b978" opacity="0.85"/><rect x="1210" y="687" width="9" height="13" fill="#f4b978" opacity="0.85"/><rect x="1236" y="653" width="9" height="13" fill="#f4b978" opacity="0.85"/><rect x="1236" y="687" width="9" height="13" fill="#f4b978" opacity="0.85"/><rect x="1236" y="789" width="9" height="13" fill="#f4b978" opacity="0.85"/><rect x="1236" y="823" width="9" height="13" fill="#f4b978" opacity="0.85"/><rect x="1236" y="857" width="9" height="13" fill="#f4b978" opacity="0.85"/><rect x="1265" y="620" width="123" height="314" fill="#191521"/><rect x="1273" y="636" width="9" height="13" fill="#f4b978" opacity="0.85"/><rect x="1273" y="840" width="9" height="13" fill="#f4b978" opacity="0.85"/><rect x="1299" y="636" width="9" height="13" fill="#f4b978" opacity="0.85"/><rect x="1299" y="670" width="9" height="13" fill="#f4b978" opacity="0.85"/><rect x="1299" y="704" width="9" height="13" fill="#f4b978" opacity="0.85"/><rect x="1325" y="670" width="9" height="13" fill="#2B6CB0" opacity="0.85"/><rect x="1325" y="772" width="9" height="13" fill="#f4b978" opacity="0.85"/><rect x="1325" y="840" width="9" height="13" fill="#f4b978" opacity="0.85"/><rect x="1325" y="874" width="9" height="13" fill="#f4b978" opacity="0.85"/><rect x="1351" y="670" width="9" height="13" fill="#f4b978" opacity="0.85"/><rect x="1398" y="732" width="124" height="202" fill="#191521"/><rect x="1406" y="748" width="9" height="13" fill="#f4b978" opacity="0.85"/><rect x="1406" y="816" width="9" height="13" fill="#f4b978" opacity="0.85"/><rect x="1432" y="850" width="9" height="13" fill="#f4b978" opacity="0.85"/><rect x="1458" y="748" width="9" height="13" fill="#f4b978" opacity="0.85"/><rect x="1484" y="748" width="9" height="13" fill="#f4b978" opacity="0.85"/><rect x="1532" y="537" width="147" height="397" fill="#191521"/><rect x="1540" y="587" width="9" height="13" fill="#f4b978" opacity="0.85"/><rect x="1540" y="621" width="9" height="13" fill="#f4b978" opacity="0.85"/><rect x="1566" y="621" width="9" height="13" fill="#f4b978" opacity="0.85"/><rect x="1566" y="859" width="9" height="13" fill="#f4b978" opacity="0.85"/><rect x="1592" y="655" width="9" height="13" fill="#f4b978" opacity="0.85"/><rect x="1592" y="757" width="9" height="13" fill="#f4b978" opacity="0.85"/><rect x="1592" y="791" width="9" height="13" fill="#f4b978" opacity="0.85"/><rect x="1592" y="859" width="9" height="13" fill="#f4b978" opacity="0.85"/><rect x="1618" y="689" width="9" height="13" fill="#f4b978" opacity="0.85"/><rect x="1644" y="553" width="9" height="13" fill="#f4b978" opacity="0.85"/><rect x="1644" y="655" width="9" height="13" fill="#f4b978" opacity="0.85"/><rect x="1644" y="689" width="9" height="13" fill="#f4b978" opacity="0.85"/><rect width="1600" height="1200" fill="url(#vig)"/><rect width="1600" height="1200" fill="#000" opacity="0.06" filter="url(#grain)"/></svg>
