<svg xmlns="http://www.w3.org/2000/svg" viewBox="0 0 1600 1200" width="1600" height="1200" role="img" preserveAspectRatio="xMidYMid slice"><defs>
    <linearGradient id="sky" x1="0" y1="0" x2="0" y2="1">
      <stop offset="0" stop-color="#8aa9c4"/>
      <stop offset="0.55" stop-color="#c6d2cf"/>
      <stop offset="1" stop-color="#efe4cd"/>
    </linearGradient>
    <radialGradient id="glow" cx="55.0%" cy="66.0%" r="55%">
      <stop offset="0" stop-color="#fff1d4" stop-opacity="0.95"/>
      <stop offset="0.5" stop-color="#fff1d4" stop-opacity="0.35"/>
      <stop offset="1" stop-color="#fff1d4" stop-opacity="0"/>
    </radialGradient>
    <radialGradient id="vig" cx="50%" cy="42%" r="78%">
      <stop offset="0.55" stop-color="#0a0a0a" stop-opacity="0"/>
      <stop offset="1" stop-color="#0a0a0a" stop-opacity="0.34"/>
    </radialGradient>
    <filter id="soft"><feGaussianBlur stdDeviation="26"/></filter>
    <filter id="grain"><feTurbulence type="fractalNoise" baseFrequency="0.9" numOctaves="2" stitchTiles="stitch"/><feColorMatrix type="saturate" values="0"/></filter></defs><rect width="1600" height="1200" fill="url(#sky)"/><rect width="1600" height="1200" fill="url(#glow)"/><circle cx="880.0000000000001" cy="792" r="150" fill="#fff6e2" opacity="0.35" filter="url(#soft)"/><circle cx="880.0000000000001" cy="792" r="63" fill="#fff6e2" opacity="0.95"/><path d="M-40,1200 L-40,641 L150,629 L340,568 L530,537 L720,577 L910,656 L1100,576 L1290,655 L1480,564 L1640,1200 Z" fill="#a6b39a" opacity="0.7"/><path d="M-40,1200 L-40,614 L150,712 L340,615 L530,640 L720,632 L910,683 L1100,556 L1290,681 L1480,619 L1640,1200 Z" fill="#7c8a70" opacity="0.9"/><path d="M-40,1200 L-40,631 L150,713 L340,826 L530,699 L720,822 L910,700 L1100,736 L1290,709 L1480,765 L1640,1200 Z" fill="#55604c"/><rect width="1600" height="1200" fill="url(#vig)"/><rect width="1600" height="1200" fill="#000" opacity="0.06" filter="url(#grain)"/></svg>
