<svg xmlns="http://www.w3.org/2000/svg" viewBox="0 0 1600 1200" width="1600" height="1200" role="img" preserveAspectRatio="xMidYMid slice"><defs>
    <linearGradient id="sky" x1="0" y1="0" x2="0" y2="1">
      <stop offset="0" stop-color="#37426a"/>
      <stop offset="0.55" stop-color="#8a5f73"/>
      <stop offset="1" stop-color="#d98a55"/>
    </linearGradient>
    <radialGradient id="glow" cx="50.0%" cy="58.0%" r="55%">
      <stop offset="0" stop-color="#f4a962" stop-opacity="0.95"/>
      <stop offset="0.5" stop-color="#f4a962" stop-opacity="0.35"/>
      <stop offset="1" stop-color="#f4a962" stop-opacity="0"/>
    </radialGradient>
    <radialGradient id="vig" cx="50%" cy="42%" r="78%">
      <stop offset="0.55" stop-color="#0a0a0a" stop-opacity="0"/>
      <stop offset="1" stop-color="#0a0a0a" stop-opacity="0.34"/>
    </radialGradient>
    <filter id="soft"><feGaussianBlur stdDeviation="26"/></filter>
    <filter id="grain"><feTurbulence type="fractalNoise" baseFrequency="0.9" numOctaves="2" stitchTiles="stitch"/><feColorMatrix type="saturate" values="0"/></filter></defs><rect width="1600" height="1200" fill="url(#sky)"/><rect width="1600" height="1200" fill="url(#glow)"/><circle cx="800" cy="696" r="260" fill="#ffdda6" opacity="0.35" filter="url(#soft)"/><circle cx="800" cy="696" r="109.2" fill="#ffdda6" opacity="0.95"/><path d="M-40,1200 L-40,640 L150,616 L340,535 L530,621 L720,577 L910,660 L1100,550 L1290,656 L1480,548 L1640,1200 Z" fill="#c48f68" opacity="0.7"/><path d="M-40,1200 L-40,673 L150,627 L340,574 L530,693 L720,742 L910,733 L1100,633 L1290,712 L1480,585 L1640,1200 Z" fill="#9a6b53" opacity="0.9"/><path d="M-40,1200 L-40,719 L150,788 L340,764 L530,751 L720,813 L910,730 L1100,650 L1290,646 L1480,724 L1640,1200 Z" fill="#5e463c"/><rect width="1600" height="1200" fill="url(#vig)"/><rect width="1600" height="1200" fill="#000" opacity="0.06" filter="url(#grain)"/></svg>
