<svg xmlns="http://www.w3.org/2000/svg" viewBox="0 0 1600 1200" width="1600" height="1200" role="img" preserveAspectRatio="xMidYMid slice"><defs>
    <linearGradient id="sky" x1="0" y1="0" x2="0" y2="1">
      <stop offset="0" stop-color="#37426a"/>
      <stop offset="0.55" stop-color="#8a5f73"/>
      <stop offset="1" stop-color="#d98a55"/>
    </linearGradient>
    <radialGradient id="glow" cx="62.0%" cy="60.0%" r="55%">
      <stop offset="0" stop-color="#f4a962" stop-opacity="0.95"/>
      <stop offset="0.5" stop-color="#f4a962" stop-opacity="0.35"/>
      <stop offset="1" stop-color="#f4a962" stop-opacity="0"/>
    </radialGradient>
    <radialGradient id="vig" cx="50%" cy="42%" r="78%">
      <stop offset="0.55" stop-color="#0a0a0a" stop-opacity="0"/>
      <stop offset="1" stop-color="#0a0a0a" stop-opacity="0.34"/>
    </radialGradient>
    <filter id="soft"><feGaussianBlur stdDeviation="26"/></filter>
    <filter id="grain"><feTurbulence type="fractalNoise" baseFrequency="0.9" numOctaves="2" stitchTiles="stitch"/><feColorMatrix type="saturate" values="0"/></filter></defs><rect width="1600" height="1200" fill="url(#sky)"/><rect width="1600" height="1200" fill="url(#glow)"/><circle cx="992" cy="720" r="210" fill="#ffdda6" opacity="0.35" filter="url(#soft)"/><circle cx="992" cy="720" r="88.2" fill="#ffdda6" opacity="0.95"/><path d="M-40,1200 L-40,646 L150,544 L340,590 L530,542 L720,674 L910,553 L1100,627 L1290,674 L1480,671 L1640,1200 Z" fill="#c48f68" opacity="0.7"/><path d="M-40,1200 L-40,559 L150,561 L340,645 L530,660 L720,641 L910,631 L1100,598 L1290,597 L1480,666 L1640,1200 Z" fill="#9a6b53" opacity="0.9"/><path d="M-40,1200 L-40,733 L150,654 L340,756 L530,731 L720,813 L910,675 L1100,657 L1290,757 L1480,795 L1640,1200 Z" fill="#5e463c"/><g><rect x="927.9999999999999" y="834" width="230" height="72" fill="#5e463c"/><rect x="1128" y="808" width="120" height="98" fill="#5e463c"/><rect x="957.9999999999999" y="854" width="34" height="30" fill="#f4b978" opacity="0.85"/><rect x="1164" y="830" width="30" height="30" fill="#f4b978" opacity="0.7"/></g><rect width="1600" height="1200" fill="url(#vig)"/><rect width="1600" height="1200" fill="#000" opacity="0.06" filter="url(#grain)"/></svg>
