<svg xmlns="http://www.w3.org/2000/svg" viewBox="0 0 1600 1200" width="1600" height="1200" role="img" preserveAspectRatio="xMidYMid slice"><defs>
    <linearGradient id="sky" x1="0" y1="0" x2="0" y2="1">
      <stop offset="0" stop-color="#37426a"/>
      <stop offset="0.55" stop-color="#8a5f73"/>
      <stop offset="1" stop-color="#d98a55"/>
    </linearGradient>
    <radialGradient id="glow" cx="68.0%" cy="58.0%" r="55%">
      <stop offset="0" stop-color="#f4a962" stop-opacity="0.95"/>
      <stop offset="0.5" stop-color="#f4a962" stop-opacity="0.35"/>
      <stop offset="1" stop-color="#f4a962" stop-opacity="0"/>
    </radialGradient>
    <radialGradient id="vig" cx="50%" cy="42%" r="78%">
      <stop offset="0.55" stop-color="#0a0a0a" stop-opacity="0"/>
      <stop offset="1" stop-color="#0a0a0a" stop-opacity="0.34"/>
    </radialGradient>
    <filter id="soft"><feGaussianBlur stdDeviation="26"/></filter>
    <filter id="grain"><feTurbulence type="fractalNoise" baseFrequency="0.9" numOctaves="2" stitchTiles="stitch"/><feColorMatrix type="saturate" values="0"/></filter></defs><rect width="1600" height="1200" fill="url(#sky)"/><rect width="1600" height="1200" fill="url(#glow)"/><circle cx="1088" cy="696" r="190" fill="#ffdda6" opacity="0.35" filter="url(#soft)"/><circle cx="1088" cy="696" r="79.8" fill="#ffdda6" opacity="0.95"/><path d="M-40,1200 L-40,641 L150,615 L340,545 L530,593 L720,676 L910,578 L1100,622 L1290,679 L1480,577 L1640,1200 Z" fill="#c48f68" opacity="0.7"/><path d="M-40,1200 L-40,723 L150,624 L340,586 L530,596 L720,731 L910,737 L1100,682 L1290,592 L1480,648 L1640,1200 Z" fill="#9a6b53" opacity="0.9"/><path d="M-40,1200 L-40,628 L150,685 L340,807 L530,831 L720,759 L910,641 L1100,772 L1290,797 L1480,763 L1640,1200 Z" fill="#5e463c"/><g fill="#5e463c"><circle cx="800" cy="852" r="26"/><path d="M766,984 C766,888 834,888 834,984 Z"/></g><rect width="1600" height="1200" fill="url(#vig)"/><rect width="1600" height="1200" fill="#000" opacity="0.06" filter="url(#grain)"/></svg>
