<svg xmlns="http://www.w3.org/2000/svg" viewBox="0 0 1600 1200" width="1600" height="1200" role="img" preserveAspectRatio="xMidYMid slice"><defs>
    <linearGradient id="sky" x1="0" y1="0" x2="0" y2="1">
      <stop offset="0" stop-color="#25263a"/>
      <stop offset="0.55" stop-color="#553b50"/>
      <stop offset="1" stop-color="#c56f3c"/>
    </linearGradient>
    <radialGradient id="glow" cx="50.0%" cy="55.0%" r="55%">
      <stop offset="0" stop-color="#e08a44" stop-opacity="0.95"/>
      <stop offset="0.5" stop-color="#e08a44" stop-opacity="0.35"/>
      <stop offset="1" stop-color="#e08a44" stop-opacity="0"/>
    </radialGradient>
    <radialGradient id="vig" cx="50%" cy="42%" r="78%">
      <stop offset="0.55" stop-color="#0a0a0a" stop-opacity="0"/>
      <stop offset="1" stop-color="#0a0a0a" stop-opacity="0.34"/>
    </radialGradient>
    <filter id="soft"><feGaussianBlur stdDeviation="26"/></filter>
    <filter id="grain"><feTurbulence type="fractalNoise" baseFrequency="0.9" numOctaves="2" stitchTiles="stitch"/><feColorMatrix type="saturate" values="0"/></filter></defs><rect width="1600" height="1200" fill="url(#sky)"/><rect width="1600" height="1200" fill="url(#glow)"/><circle cx="800" cy="660" r="170" fill="#ffce8f" opacity="0.35" filter="url(#soft)"/><circle cx="800" cy="660" r="71.39999999999999" fill="#ffce8f" opacity="0.95"/><path d="M-40,1200 L-40,644 L150,668 L340,675 L530,559 L720,675 L910,561 L1100,576 L1290,675 L1480,640 L1640,1200 Z" fill="#3a3346" opacity="0.7"/><path d="M-40,1200 L-40,677 L150,582 L340,562 L530,575 L720,671 L910,729 L1100,562 L1290,659 L1480,597 L1640,1200 Z" fill="#2a2533" opacity="0.9"/><rect x="-20" y="764" width="117" height="170" fill="#191521"/><rect x="-12" y="780" width="9" height="13" fill="#2B6CB0" opacity="0.85"/><rect x="14" y="814" width="9" height="13" fill="#f4b978" opacity="0.85"/><rect x="66" y="780" width="9" height="13" fill="#f4b978" opacity="0.85"/><rect x="107" y="755" width="80" height="179" fill="#191521"/><rect x="115" y="805" width="9" height="13" fill="#f4b978" opacity="0.85"/><rect x="115" y="839" width="9" height="13" fill="#f4b978" opacity="0.85"/><rect x="115" y="873" width="9" height="13" fill="#f4b978" opacity="0.85"/><rect x="141" y="771" width="9" height="13" fill="#f4b978" opacity="0.85"/><rect x="167" y="839" width="9" height="13" fill="#f4b978" opacity="0.85"/><rect x="197" y="696" width="115" height="238" fill="#191521"/><rect x="205" y="746" width="9" height="13" fill="#f4b978" opacity="0.85"/><rect x="231" y="848" width="9" height="13" fill="#2B6CB0" opacity="0.85"/><rect x="257" y="746" width="9" height="13" fill="#f4b978" opacity="0.85"/><rect x="257" y="780" width="9" height="13" fill="#f4b978" opacity="0.85"/><rect x="257" y="814" width="9" height="13" fill="#f4b978" opacity="0.85"/><rect x="283" y="746" width="9" height="13" fill="#f4b978" opacity="0.85"/><rect x="283" y="848" width="9" height="13" fill="#f4b978" opacity="0.85"/><rect x="322" y="770" width="142" height="164" fill="#191521"/><rect x="330" y="786" width="9" height="13" fill="#f4b978" opacity="0.85"/><rect x="330" y="854" width="9" height="13" fill="#f4b978" opacity="0.85"/><rect x="382" y="820" width="9" height="13" fill="#f4b978" opacity="0.85"/><rect x="408" y="820" width="9" height="13" fill="#f4b978" opacity="0.85"/><rect x="434" y="786" width="9" height="13" fill="#f4b978" opacity="0.85"/><rect x="474" y="511" width="109" height="423" fill="#191521"/><rect x="482" y="561" width="9" height="13" fill="#f4b978" opacity="0.85"/><rect x="508" y="595" width="9" height="13" fill="#f4b978" opacity="0.85"/><rect x="508" y="663" width="9" height="13" fill="#f4b978" opacity="0.85"/><rect x="508" y="833" width="9" height="13" fill="#f4b978" opacity="0.85"/><rect x="534" y="595" width="9" height="13" fill="#f4b978" opacity="0.85"/><rect x="534" y="629" width="9" height="13" fill="#f4b978" opacity="0.85"/><rect x="560" y="561" width="9" height="13" fill="#f4b978" opacity="0.85"/><rect x="560" y="595" width="9" height="13" fill="#f4b978" opacity="0.85"/><rect x="560" y="765" width="9" height="13" fill="#f4b978" opacity="0.85"/><rect x="593" y="783" width="73" height="151" fill="#191521"/><rect x="601" y="833" width="9" height="13" fill="#f4b978" opacity="0.85"/><rect x="627" y="867" width="9" height="13" fill="#2B6CB0" opacity="0.85"/><rect x="676" y="800" width="115" height="134" fill="#191521"/><rect x="684" y="816" width="9" height="13" fill="#f4b978" opacity="0.85"/><rect x="710" y="850" width="9" height="13" fill="#f4b978" opacity="0.85"/><rect x="736" y="816" width="9" height="13" fill="#f4b978" opacity="0.85"/><rect x="801" y="738" width="142" height="196" fill="#191521"/><rect x="809" y="754" width="9" height="13" fill="#2B6CB0" opacity="0.85"/><rect x="809" y="856" width="9" height="13" fill="#2B6CB0" opacity="0.85"/><rect x="861" y="856" width="9" height="13" fill="#f4b978" opacity="0.85"/><rect x="887" y="754" width="9" height="13" fill="#2B6CB0" opacity="0.85"/><rect x="887" y="822" width="9" height="13" fill="#f4b978" opacity="0.85"/><rect x="887" y="856" width="9" height="13" fill="#2B6CB0" opacity="0.85"/><rect x="913" y="822" width="9" height="13" fill="#f4b978" opacity="0.85"/><rect x="953" y="755" width="126" height="179" fill="#191521"/><rect x="961" y="771" width="9" height="13" fill="#f4b978" opacity="0.85"/><rect x="987" y="873" width="9" height="13" fill="#f4b978" opacity="0.85"/><rect x="1013" y="873" width="9" height="13" fill="#f4b978" opacity="0.85"/><rect x="1089" y="663" width="130" height="271" fill="#191521"/><rect x="1097" y="679" width="9" height="13" fill="#f4b978" opacity="0.85"/><rect x="1097" y="815" width="9" height="13" fill="#f4b978" opacity="0.85"/><rect x="1123" y="815" width="9" height="13" fill="#f4b978" opacity="0.85"/><rect x="1149" y="815" width="9" height="13" fill="#f4b978" opacity="0.85"/><rect x="1175" y="781" width="9" height="13" fill="#f4b978" opacity="0.85"/><rect x="1201" y="747" width="9" height="13" fill="#f4b978" opacity="0.85"/><rect x="1229" y="676" width="77" height="258" fill="#191521"/><rect x="1237" y="692" width="9" height="13" fill="#f4b978" opacity="0.85"/><rect x="1263" y="692" width="9" height="13" fill="#f4b978" opacity="0.85"/><rect x="1263" y="794" width="9" height="13" fill="#f4b978" opacity="0.85"/><rect x="1263" y="862" width="9" height="13" fill="#f4b978" opacity="0.85"/><rect x="1316" y="508" width="90" height="426" fill="#191521"/><rect x="1324" y="524" width="9" height="13" fill="#f4b978" opacity="0.85"/><rect x="1324" y="762" width="9" height="13" fill="#f4b978" opacity="0.85"/><rect x="1350" y="524" width="9" height="13" fill="#f4b978" opacity="0.85"/><rect x="1350" y="626" width="9" height="13" fill="#f4b978" opacity="0.85"/><rect x="1350" y="660" width="9" height="13" fill="#f4b978" opacity="0.85"/><rect x="1350" y="694" width="9" height="13" fill="#f4b978" opacity="0.85"/><rect x="1350" y="728" width="9" height="13" fill="#f4b978" opacity="0.85"/><rect x="1350" y="796" width="9" height="13" fill="#f4b978" opacity="0.85"/><rect x="1350" y="830" width="9" height="13" fill="#f4b978" opacity="0.85"/><rect x="1376" y="524" width="9" height="13" fill="#f4b978" opacity="0.85"/><rect x="1376" y="558" width="9" height="13" fill="#f4b978" opacity="0.85"/><rect x="1376" y="592" width="9" height="13" fill="#f4b978" opacity="0.85"/><rect x="1376" y="694" width="9" height="13" fill="#f4b978" opacity="0.85"/><rect x="1376" y="762" width="9" height="13" fill="#2B6CB0" opacity="0.85"/><rect x="1376" y="830" width="9" height="13" fill="#f4b978" opacity="0.85"/><rect x="1416" y="623" width="62" height="311" fill="#191521"/><rect x="1424" y="741" width="9" height="13" fill="#f4b978" opacity="0.85"/><rect x="1424" y="809" width="9" height="13" fill="#f4b978" opacity="0.85"/><rect x="1450" y="639" width="9" height="13" fill="#f4b978" opacity="0.85"/><rect x="1488" y="676" width="94" height="258" fill="#191521"/><rect x="1496" y="828" width="9" height="13" fill="#f4b978" opacity="0.85"/><rect x="1522" y="692" width="9" height="13" fill="#f4b978" opacity="0.85"/><rect x="1522" y="726" width="9" height="13" fill="#f4b978" opacity="0.85"/><rect x="1522" y="760" width="9" height="13" fill="#f4b978" opacity="0.85"/><rect x="1548" y="692" width="9" height="13" fill="#2B6CB0" opacity="0.85"/><rect x="1548" y="726" width="9" height="13" fill="#f4b978" opacity="0.85"/><rect x="1548" y="760" width="9" height="13" fill="#f4b978" opacity="0.85"/><rect x="1548" y="794" width="9" height="13" fill="#f4b978" opacity="0.85"/><rect x="1548" y="862" width="9" height="13" fill="#f4b978" opacity="0.85"/><rect x="1592" y="703" width="118" height="231" fill="#191521"/><rect x="1626" y="719" width="9" height="13" fill="#f4b978" opacity="0.85"/><rect x="1652" y="719" width="9" height="13" fill="#f4b978" opacity="0.85"/><rect x="1652" y="753" width="9" height="13" fill="#f4b978" opacity="0.85"/><rect x="1678" y="753" width="9" height="13" fill="#f4b978" opacity="0.85"/><rect x="1678" y="821" width="9" height="13" fill="#f4b978" opacity="0.85"/><rect width="1600" height="1200" fill="url(#vig)"/><rect width="1600" height="1200" fill="#000" opacity="0.06" filter="url(#grain)"/></svg>
