<svg xmlns="http://www.w3.org/2000/svg" viewBox="0 0 1600 1200" width="1600" height="1200" role="img" preserveAspectRatio="xMidYMid slice"><defs>
    <linearGradient id="sky" x1="0" y1="0" x2="0" y2="1">
      <stop offset="0" stop-color="#8aa9c4"/>
      <stop offset="0.55" stop-color="#c6d2cf"/>
      <stop offset="1" stop-color="#efe4cd"/>
    </linearGradient>
    <radialGradient id="glow" cx="60.0%" cy="68.0%" r="55%">
      <stop offset="0" stop-color="#fff1d4" stop-opacity="0.95"/>
      <stop offset="0.5" stop-color="#fff1d4" stop-opacity="0.35"/>
      <stop offset="1" stop-color="#fff1d4" stop-opacity="0"/>
    </radialGradient>
    <radialGradient id="vig" cx="50%" cy="42%" r="78%">
      <stop offset="0.55" stop-color="#0a0a0a" stop-opacity="0"/>
      <stop offset="1" stop-color="#0a0a0a" stop-opacity="0.34"/>
    </radialGradient>
    <filter id="soft"><feGaussianBlur stdDeviation="26"/></filter>
    <filter id="grain"><feTurbulence type="fractalNoise" baseFrequency="0.9" numOctaves="2" stitchTiles="stitch"/><feColorMatrix type="saturate" values="0"/></filter></defs><rect width="1600" height="1200" fill="url(#sky)"/><rect width="1600" height="1200" fill="url(#glow)"/><circle cx="960" cy="816.0000000000001" r="150" fill="#fff6e2" opacity="0.35" filter="url(#soft)"/><circle cx="960" cy="816.0000000000001" r="63" fill="#fff6e2" opacity="0.95"/><path d="M-40,1200 L-40,645 L150,627 L340,596 L530,604 L720,575 L910,559 L1100,643 L1290,575 L1480,650 L1640,1200 Z" fill="#a6b39a" opacity="0.7"/><path d="M-40,1200 L-40,574 L150,701 L340,653 L530,730 L720,598 L910,696 L1100,701 L1290,702 L1480,620 L1640,1200 Z" fill="#7c8a70" opacity="0.9"/><path d="M-40,1200 L-40,780 L150,824 L340,744 L530,730 L720,661 L910,644 L1100,683 L1290,743 L1480,671 L1640,1200 Z" fill="#55604c"/><g fill="#55604c"><rect x="217" y="890" width="6" height="40"/><circle cx="220" cy="884" r="26"/><circle cx="204.4" cy="894" r="18.2"/><circle cx="235.6" cy="894" r="18.2"/></g><g fill="#55604c"><rect x="357" y="890" width="6" height="40"/><circle cx="360" cy="884" r="26"/><circle cx="344.4" cy="894" r="18.2"/><circle cx="375.6" cy="894" r="18.2"/></g><g fill="#55604c"><rect x="517" y="890" width="6" height="40"/><circle cx="520" cy="884" r="26"/><circle cx="504.4" cy="894" r="18.2"/><circle cx="535.6" cy="894" r="18.2"/></g><g fill="#55604c"><rect x="1177" y="890" width="6" height="40"/><circle cx="1180" cy="884" r="26"/><circle cx="1164.4" cy="894" r="18.2"/><circle cx="1195.6" cy="894" r="18.2"/></g><g fill="#55604c"><rect x="1337" y="890" width="6" height="40"/><circle cx="1340" cy="884" r="26"/><circle cx="1324.4" cy="894" r="18.2"/><circle cx="1355.6" cy="894" r="18.2"/></g><rect width="1600" height="1200" fill="url(#vig)"/><rect width="1600" height="1200" fill="#000" opacity="0.06" filter="url(#grain)"/></svg>
