<svg xmlns="http://www.w3.org/2000/svg" viewBox="0 0 1600 1200" width="1600" height="1200" role="img" preserveAspectRatio="xMidYMid slice"><defs>
    <linearGradient id="sky" x1="0" y1="0" x2="0" y2="1">
      <stop offset="0" stop-color="#8aa9c4"/>
      <stop offset="0.55" stop-color="#c6d2cf"/>
      <stop offset="1" stop-color="#efe4cd"/>
    </linearGradient>
    <radialGradient id="glow" cx="40.0%" cy="66.0%" r="55%">
      <stop offset="0" stop-color="#fff1d4" stop-opacity="0.95"/>
      <stop offset="0.5" stop-color="#fff1d4" stop-opacity="0.35"/>
      <stop offset="1" stop-color="#fff1d4" stop-opacity="0"/>
    </radialGradient>
    <radialGradient id="vig" cx="50%" cy="42%" r="78%">
      <stop offset="0.55" stop-color="#0a0a0a" stop-opacity="0"/>
      <stop offset="1" stop-color="#0a0a0a" stop-opacity="0.34"/>
    </radialGradient>
    <filter id="soft"><feGaussianBlur stdDeviation="26"/></filter>
    <filter id="grain"><feTurbulence type="fractalNoise" baseFrequency="0.9" numOctaves="2" stitchTiles="stitch"/><feColorMatrix type="saturate" values="0"/></filter></defs><rect width="1600" height="1200" fill="url(#sky)"/><rect width="1600" height="1200" fill="url(#glow)"/><circle cx="640" cy="792" r="160" fill="#fff6e2" opacity="0.35" filter="url(#soft)"/><circle cx="640" cy="792" r="67.2" fill="#fff6e2" opacity="0.95"/><path d="M-40,1200 L-40,644 L150,532 L340,548 L530,654 L720,575 L910,640 L1100,679 L1290,651 L1480,627 L1640,1200 Z" fill="#a6b39a" opacity="0.7"/><path d="M-40,1200 L-40,567 L150,670 L340,591 L530,619 L720,573 L910,676 L1100,627 L1290,558 L1480,568 L1640,1200 Z" fill="#7c8a70" opacity="0.9"/><path d="M-40,1200 L-40,701 L150,832 L340,652 L530,703 L720,648 L910,793 L1100,659 L1290,753 L1480,716 L1640,1200 Z" fill="#55604c"/><g fill="#55604c"><rect x="177" y="890" width="6" height="40"/><circle cx="180" cy="884" r="26"/><circle cx="164.4" cy="894" r="18.2"/><circle cx="195.6" cy="894" r="18.2"/></g><g fill="#55604c"><rect x="297" y="890" width="6" height="40"/><circle cx="300" cy="884" r="26"/><circle cx="284.4" cy="894" r="18.2"/><circle cx="315.6" cy="894" r="18.2"/></g><g fill="#55604c"><rect x="427" y="890" width="6" height="40"/><circle cx="430" cy="884" r="26"/><circle cx="414.4" cy="894" r="18.2"/><circle cx="445.6" cy="894" r="18.2"/></g><g fill="#55604c"><rect x="897" y="890" width="6" height="40"/><circle cx="900" cy="884" r="26"/><circle cx="884.4" cy="894" r="18.2"/><circle cx="915.6" cy="894" r="18.2"/></g><g fill="#55604c"><rect x="1047" y="890" width="6" height="40"/><circle cx="1050" cy="884" r="26"/><circle cx="1034.4" cy="894" r="18.2"/><circle cx="1065.6" cy="894" r="18.2"/></g><g fill="#55604c"><rect x="1247" y="890" width="6" height="40"/><circle cx="1250" cy="884" r="26"/><circle cx="1234.4" cy="894" r="18.2"/><circle cx="1265.6" cy="894" r="18.2"/></g><g fill="#55604c"><rect x="1417" y="890" width="6" height="40"/><circle cx="1420" cy="884" r="26"/><circle cx="1404.4" cy="894" r="18.2"/><circle cx="1435.6" cy="894" r="18.2"/></g><rect width="1600" height="1200" fill="url(#vig)"/><rect width="1600" height="1200" fill="#000" opacity="0.06" filter="url(#grain)"/></svg>
