<svg xmlns="http://www.w3.org/2000/svg" viewBox="0 0 1600 1200" width="1600" height="1200" role="img" preserveAspectRatio="xMidYMid slice"><defs>
    <linearGradient id="sky" x1="0" y1="0" x2="0" y2="1">
      <stop offset="0" stop-color="#37426a"/>
      <stop offset="0.55" stop-color="#8a5f73"/>
      <stop offset="1" stop-color="#d98a55"/>
    </linearGradient>
    <radialGradient id="glow" cx="44.0%" cy="62.0%" r="55%">
      <stop offset="0" stop-color="#f4a962" stop-opacity="0.95"/>
      <stop offset="0.5" stop-color="#f4a962" stop-opacity="0.35"/>
      <stop offset="1" stop-color="#f4a962" stop-opacity="0"/>
    </radialGradient>
    <radialGradient id="vig" cx="50%" cy="42%" r="78%">
      <stop offset="0.55" stop-color="#0a0a0a" stop-opacity="0"/>
      <stop offset="1" stop-color="#0a0a0a" stop-opacity="0.34"/>
    </radialGradient>
    <filter id="soft"><feGaussianBlur stdDeviation="26"/></filter>
    <filter id="grain"><feTurbulence type="fractalNoise" baseFrequency="0.9" numOctaves="2" stitchTiles="stitch"/><feColorMatrix type="saturate" values="0"/></filter></defs><rect width="1600" height="1200" fill="url(#sky)"/><rect width="1600" height="1200" fill="url(#glow)"/><circle cx="704" cy="744" r="190" fill="#ffdda6" opacity="0.35" filter="url(#soft)"/><circle cx="704" cy="744" r="79.8" fill="#ffdda6" opacity="0.95"/><path d="M-40,1200 L-40,645 L150,640 L340,629 L530,670 L720,574 L910,555 L1100,669 L1290,574 L1480,666 L1640,1200 Z" fill="#c48f68" opacity="0.7"/><path d="M-40,1200 L-40,705 L150,596 L340,694 L530,677 L720,678 L910,647 L1100,624 L1290,671 L1480,655 L1640,1200 Z" fill="#9a6b53" opacity="0.9"/><path d="M-40,1200 L-40,692 L150,749 L340,806 L530,679 L720,670 L910,825 L1100,769 L1290,806 L1480,712 L1640,1200 Z" fill="#5e463c"/><path d="M832,1200 Q640,1032 800,894" stroke="#ffdda6" stroke-width="26" fill="none" opacity="0.28" stroke-linecap="round"/><rect width="1600" height="1200" fill="url(#vig)"/><rect width="1600" height="1200" fill="#000" opacity="0.06" filter="url(#grain)"/></svg>
