<svg xmlns="http://www.w3.org/2000/svg" viewBox="0 0 1600 1200" width="1600" height="1200" role="img" preserveAspectRatio="xMidYMid slice"><defs>
    <linearGradient id="sky" x1="0" y1="0" x2="0" y2="1">
      <stop offset="0" stop-color="#b9b3ab"/>
      <stop offset="0.55" stop-color="#d6cfc4"/>
      <stop offset="1" stop-color="#e8e2d6"/>
    </linearGradient>
    <radialGradient id="glow" cx="50.0%" cy="64.0%" r="55%">
      <stop offset="0" stop-color="#efe7d8" stop-opacity="0.95"/>
      <stop offset="0.5" stop-color="#efe7d8" stop-opacity="0.35"/>
      <stop offset="1" stop-color="#efe7d8" stop-opacity="0"/>
    </radialGradient>
    <radialGradient id="vig" cx="50%" cy="42%" r="78%">
      <stop offset="0.55" stop-color="#0a0a0a" stop-opacity="0"/>
      <stop offset="1" stop-color="#0a0a0a" stop-opacity="0.34"/>
    </radialGradient>
    <filter id="soft"><feGaussianBlur stdDeviation="26"/></filter>
    <filter id="grain"><feTurbulence type="fractalNoise" baseFrequency="0.9" numOctaves="2" stitchTiles="stitch"/><feColorMatrix type="saturate" values="0"/></filter></defs><rect width="1600" height="1200" fill="url(#sky)"/><rect width="1600" height="1200" fill="url(#glow)"/><circle cx="800" cy="768" r="150" fill="#f3ece0" opacity="0.35" filter="url(#soft)"/><circle cx="800" cy="768" r="63" fill="#f3ece0" opacity="0.95"/><path d="M-40,1200 L-40,642 L150,547 L340,561 L530,626 L720,676 L910,651 L1100,560 L1290,604 L1480,585 L1640,1200 Z" fill="#c3bcae" opacity="0.7"/><path d="M-40,1200 L-40,598 L150,571 L340,607 L530,570 L720,676 L910,617 L1100,643 L1290,577 L1480,665 L1640,1200 Z" fill="#a49c8f" opacity="0.9"/><path d="M-40,1200 L-40,795 L150,753 L340,628 L530,701 L720,764 L910,731 L1100,710 L1290,724 L1480,678 L1640,1200 Z" fill="#837b6f"/><rect width="1600" height="1200" fill="url(#vig)"/><rect width="1600" height="1200" fill="#000" opacity="0.06" filter="url(#grain)"/></svg>
