<svg xmlns="http://www.w3.org/2000/svg" viewBox="0 0 1600 1200" width="1600" height="1200" role="img" preserveAspectRatio="xMidYMid slice"><defs>
    <linearGradient id="sky" x1="0" y1="0" x2="0" y2="1">
      <stop offset="0" stop-color="#171b2e"/>
      <stop offset="0.55" stop-color="#2f2c48"/>
      <stop offset="1" stop-color="#7a4f4a"/>
    </linearGradient>
    <radialGradient id="glow" cx="50.0%" cy="56.0%" r="55%">
      <stop offset="0" stop-color="#c76a45" stop-opacity="0.95"/>
      <stop offset="0.5" stop-color="#c76a45" stop-opacity="0.35"/>
      <stop offset="1" stop-color="#c76a45" stop-opacity="0"/>
    </radialGradient>
    <radialGradient id="vig" cx="50%" cy="42%" r="78%">
      <stop offset="0.55" stop-color="#0a0a0a" stop-opacity="0"/>
      <stop offset="1" stop-color="#0a0a0a" stop-opacity="0.34"/>
    </radialGradient>
    <filter id="soft"><feGaussianBlur stdDeviation="26"/></filter>
    <filter id="grain"><feTurbulence type="fractalNoise" baseFrequency="0.9" numOctaves="2" stitchTiles="stitch"/><feColorMatrix type="saturate" values="0"/></filter></defs><rect width="1600" height="1200" fill="url(#sky)"/><rect width="1600" height="1200" fill="url(#glow)"/><circle cx="800" cy="672.0000000000001" r="260" fill="#f0a86a" opacity="0.35" filter="url(#soft)"/><circle cx="800" cy="672.0000000000001" r="109.2" fill="#f0a86a" opacity="0.95"/><path d="M-40,1200 L-40,640 L150,534 L340,669 L530,587 L720,577 L910,587 L1100,612 L1290,581 L1480,540 L1640,1200 Z" fill="#2a2b3d" opacity="0.7"/><path d="M-40,1200 L-40,607 L150,680 L340,743 L530,719 L720,607 L910,662 L1100,672 L1290,727 L1480,567 L1640,1200 Z" fill="#1c1c2a" opacity="0.9"/><path d="M-40,1200 L-40,763 L150,721 L340,734 L530,672 L720,808 L910,639 L1100,712 L1290,719 L1480,809 L1640,1200 Z" fill="#101018"/><rect width="1600" height="1200" fill="url(#vig)"/><rect width="1600" height="1200" fill="#000" opacity="0.06" filter="url(#grain)"/></svg>
