<svg xmlns="http://www.w3.org/2000/svg" viewBox="0 0 1600 1200" width="1600" height="1200" role="img" preserveAspectRatio="xMidYMid slice"><defs>
    <linearGradient id="sky" x1="0" y1="0" x2="0" y2="1">
      <stop offset="0" stop-color="#171b2e"/>
      <stop offset="0.55" stop-color="#2f2c48"/>
      <stop offset="1" stop-color="#7a4f4a"/>
    </linearGradient>
    <radialGradient id="glow" cx="56.0%" cy="64.0%" r="55%">
      <stop offset="0" stop-color="#c76a45" stop-opacity="0.95"/>
      <stop offset="0.5" stop-color="#c76a45" stop-opacity="0.35"/>
      <stop offset="1" stop-color="#c76a45" stop-opacity="0"/>
    </radialGradient>
    <radialGradient id="vig" cx="50%" cy="42%" r="78%">
      <stop offset="0.55" stop-color="#0a0a0a" stop-opacity="0"/>
      <stop offset="1" stop-color="#0a0a0a" stop-opacity="0.34"/>
    </radialGradient>
    <filter id="soft"><feGaussianBlur stdDeviation="26"/></filter>
    <filter id="grain"><feTurbulence type="fractalNoise" baseFrequency="0.9" numOctaves="2" stitchTiles="stitch"/><feColorMatrix type="saturate" values="0"/></filter></defs><rect width="1600" height="1200" fill="url(#sky)"/><rect width="1600" height="1200" fill="url(#glow)"/><circle cx="896.0000000000001" cy="768" r="150" fill="#f0a86a" opacity="0.35" filter="url(#soft)"/><circle cx="896.0000000000001" cy="768" r="63" fill="#f0a86a" opacity="0.95"/><path d="M-40,1200 L-40,640 L150,602 L340,653 L530,554 L720,577 L910,665 L1100,674 L1290,657 L1480,533 L1640,1200 Z" fill="#2a2b3d" opacity="0.7"/><path d="M-40,1200 L-40,732 L150,733 L340,722 L530,556 L720,662 L910,592 L1100,711 L1290,743 L1480,740 L1640,1200 Z" fill="#1c1c2a" opacity="0.9"/><path d="M-40,1200 L-40,806 L150,654 L340,703 L530,803 L720,804 L910,759 L1100,774 L1290,793 L1480,684 L1640,1200 Z" fill="#101018"/><g fill="#101018"><rect x="257" y="890" width="6" height="40"/><circle cx="260" cy="884" r="26"/><circle cx="244.4" cy="894" r="18.2"/><circle cx="275.6" cy="894" r="18.2"/></g><g fill="#101018"><rect x="1297" y="890" width="6" height="40"/><circle cx="1300" cy="884" r="26"/><circle cx="1284.4" cy="894" r="18.2"/><circle cx="1315.6" cy="894" r="18.2"/></g><rect width="1600" height="1200" fill="url(#vig)"/><rect width="1600" height="1200" fill="#000" opacity="0.06" filter="url(#grain)"/></svg>
