<svg xmlns="http://www.w3.org/2000/svg" viewBox="0 0 1600 1200" width="1600" height="1200" role="img" preserveAspectRatio="xMidYMid slice"><defs>
    <linearGradient id="sky" x1="0" y1="0" x2="0" y2="1">
      <stop offset="0" stop-color="#171b2e"/>
      <stop offset="0.55" stop-color="#2f2c48"/>
      <stop offset="1" stop-color="#7a4f4a"/>
    </linearGradient>
    <radialGradient id="glow" cx="44.0%" cy="55.0%" r="55%">
      <stop offset="0" stop-color="#c76a45" stop-opacity="0.95"/>
      <stop offset="0.5" stop-color="#c76a45" stop-opacity="0.35"/>
      <stop offset="1" stop-color="#c76a45" stop-opacity="0"/>
    </radialGradient>
    <radialGradient id="vig" cx="50%" cy="42%" r="78%">
      <stop offset="0.55" stop-color="#0a0a0a" stop-opacity="0"/>
      <stop offset="1" stop-color="#0a0a0a" stop-opacity="0.34"/>
    </radialGradient>
    <filter id="soft"><feGaussianBlur stdDeviation="26"/></filter>
    <filter id="grain"><feTurbulence type="fractalNoise" baseFrequency="0.9" numOctaves="2" stitchTiles="stitch"/><feColorMatrix type="saturate" values="0"/></filter></defs><rect width="1600" height="1200" fill="url(#sky)"/><rect width="1600" height="1200" fill="url(#glow)"/><circle cx="704" cy="660" r="160" fill="#f0a86a" opacity="0.35" filter="url(#soft)"/><circle cx="704" cy="660" r="67.2" fill="#f0a86a" opacity="0.95"/><path d="M-40,1200 L-40,640 L150,657 L340,614 L530,576 L720,677 L910,663 L1100,632 L1290,606 L1480,538 L1640,1200 Z" fill="#2a2b3d" opacity="0.7"/><path d="M-40,1200 L-40,585 L150,697 L340,673 L530,728 L720,625 L910,576 L1100,685 L1290,669 L1480,561 L1640,1200 Z" fill="#1c1c2a" opacity="0.9"/><rect x="-20" y="713" width="143" height="221" fill="#101018"/><rect x="-12" y="729" width="9" height="13" fill="#2B6CB0" opacity="0.85"/><rect x="-12" y="831" width="9" height="13" fill="#f4b978" opacity="0.85"/><rect x="14" y="763" width="9" height="13" fill="#f4b978" opacity="0.85"/><rect x="14" y="831" width="9" height="13" fill="#f4b978" opacity="0.85"/><rect x="40" y="797" width="9" height="13" fill="#f4b978" opacity="0.85"/><rect x="40" y="831" width="9" height="13" fill="#f4b978" opacity="0.85"/><rect x="66" y="831" width="9" height="13" fill="#f4b978" opacity="0.85"/><rect x="92" y="763" width="9" height="13" fill="#f4b978" opacity="0.85"/><rect x="92" y="831" width="9" height="13" fill="#f4b978" opacity="0.85"/><rect x="133" y="676" width="100" height="258" fill="#101018"/><rect x="141" y="794" width="9" height="13" fill="#f4b978" opacity="0.85"/><rect x="141" y="828" width="9" height="13" fill="#f4b978" opacity="0.85"/><rect x="167" y="692" width="9" height="13" fill="#f4b978" opacity="0.85"/><rect x="167" y="760" width="9" height="13" fill="#f4b978" opacity="0.85"/><rect x="193" y="692" width="9" height="13" fill="#f4b978" opacity="0.85"/><rect x="193" y="862" width="9" height="13" fill="#f4b978" opacity="0.85"/><rect x="243" y="772" width="144" height="162" fill="#101018"/><rect x="251" y="822" width="9" height="13" fill="#f4b978" opacity="0.85"/><rect x="277" y="822" width="9" height="13" fill="#f4b978" opacity="0.85"/><rect x="303" y="788" width="9" height="13" fill="#f4b978" opacity="0.85"/><rect x="355" y="822" width="9" height="13" fill="#f4b978" opacity="0.85"/><rect x="397" y="697" width="73" height="237" fill="#101018"/><rect x="431" y="781" width="9" height="13" fill="#f4b978" opacity="0.85"/><rect x="480" y="689" width="139" height="245" fill="#101018"/><rect x="488" y="773" width="9" height="13" fill="#2B6CB0" opacity="0.85"/><rect x="488" y="807" width="9" height="13" fill="#f4b978" opacity="0.85"/><rect x="514" y="705" width="9" height="13" fill="#f4b978" opacity="0.85"/><rect x="514" y="773" width="9" height="13" fill="#f4b978" opacity="0.85"/><rect x="514" y="841" width="9" height="13" fill="#f4b978" opacity="0.85"/><rect x="540" y="773" width="9" height="13" fill="#2B6CB0" opacity="0.85"/><rect x="540" y="875" width="9" height="13" fill="#f4b978" opacity="0.85"/><rect x="566" y="773" width="9" height="13" fill="#f4b978" opacity="0.85"/><rect x="566" y="875" width="9" height="13" fill="#f4b978" opacity="0.85"/><rect x="592" y="773" width="9" height="13" fill="#f4b978" opacity="0.85"/><rect x="592" y="807" width="9" height="13" fill="#f4b978" opacity="0.85"/><rect x="629" y="706" width="103" height="228" fill="#101018"/><rect x="637" y="722" width="9" height="13" fill="#f4b978" opacity="0.85"/><rect x="637" y="858" width="9" height="13" fill="#f4b978" opacity="0.85"/><rect x="663" y="722" width="9" height="13" fill="#f4b978" opacity="0.85"/><rect x="663" y="824" width="9" height="13" fill="#2B6CB0" opacity="0.85"/><rect x="742" y="598" width="88" height="336" fill="#101018"/><rect x="750" y="614" width="9" height="13" fill="#f4b978" opacity="0.85"/><rect x="750" y="716" width="9" height="13" fill="#f4b978" opacity="0.85"/><rect x="750" y="818" width="9" height="13" fill="#f4b978" opacity="0.85"/><rect x="776" y="784" width="9" height="13" fill="#2B6CB0" opacity="0.85"/><rect x="802" y="716" width="9" height="13" fill="#f4b978" opacity="0.85"/><rect x="802" y="784" width="9" height="13" fill="#f4b978" opacity="0.85"/><rect x="802" y="852" width="9" height="13" fill="#f4b978" opacity="0.85"/><rect x="840" y="644" width="114" height="290" fill="#101018"/><rect x="848" y="830" width="9" height="13" fill="#f4b978" opacity="0.85"/><rect x="874" y="762" width="9" height="13" fill="#f4b978" opacity="0.85"/><rect x="874" y="796" width="9" height="13" fill="#f4b978" opacity="0.85"/><rect x="900" y="660" width="9" height="13" fill="#f4b978" opacity="0.85"/><rect x="926" y="830" width="9" height="13" fill="#2B6CB0" opacity="0.85"/><rect x="964" y="507" width="133" height="427" fill="#101018"/><rect x="972" y="523" width="9" height="13" fill="#2B6CB0" opacity="0.85"/><rect x="972" y="557" width="9" height="13" fill="#f4b978" opacity="0.85"/><rect x="972" y="727" width="9" height="13" fill="#2B6CB0" opacity="0.85"/><rect x="998" y="625" width="9" height="13" fill="#f4b978" opacity="0.85"/><rect x="998" y="727" width="9" height="13" fill="#f4b978" opacity="0.85"/><rect x="998" y="829" width="9" height="13" fill="#f4b978" opacity="0.85"/><rect x="1024" y="523" width="9" height="13" fill="#2B6CB0" opacity="0.85"/><rect x="1024" y="557" width="9" height="13" fill="#f4b978" opacity="0.85"/><rect x="1024" y="591" width="9" height="13" fill="#f4b978" opacity="0.85"/><rect x="1024" y="795" width="9" height="13" fill="#f4b978" opacity="0.85"/><rect x="1050" y="591" width="9" height="13" fill="#2B6CB0" opacity="0.85"/><rect x="1050" y="659" width="9" height="13" fill="#2B6CB0" opacity="0.85"/><rect x="1050" y="795" width="9" height="13" fill="#f4b978" opacity="0.85"/><rect x="1107" y="570" width="90" height="364" fill="#101018"/><rect x="1115" y="722" width="9" height="13" fill="#f4b978" opacity="0.85"/><rect x="1141" y="586" width="9" height="13" fill="#f4b978" opacity="0.85"/><rect x="1141" y="688" width="9" height="13" fill="#f4b978" opacity="0.85"/><rect x="1141" y="722" width="9" height="13" fill="#f4b978" opacity="0.85"/><rect x="1141" y="824" width="9" height="13" fill="#f4b978" opacity="0.85"/><rect x="1167" y="654" width="9" height="13" fill="#f4b978" opacity="0.85"/><rect x="1167" y="688" width="9" height="13" fill="#f4b978" opacity="0.85"/><rect x="1167" y="722" width="9" height="13" fill="#f4b978" opacity="0.85"/><rect x="1167" y="790" width="9" height="13" fill="#f4b978" opacity="0.85"/><rect x="1207" y="665" width="128" height="269" fill="#101018"/><rect x="1215" y="681" width="9" height="13" fill="#f4b978" opacity="0.85"/><rect x="1241" y="681" width="9" height="13" fill="#f4b978" opacity="0.85"/><rect x="1241" y="817" width="9" height="13" fill="#f4b978" opacity="0.85"/><rect x="1267" y="851" width="9" height="13" fill="#2B6CB0" opacity="0.85"/><rect x="1293" y="749" width="9" height="13" fill="#f4b978" opacity="0.85"/><rect x="1293" y="783" width="9" height="13" fill="#f4b978" opacity="0.85"/><rect x="1345" y="594" width="94" height="340" fill="#101018"/><rect x="1353" y="610" width="9" height="13" fill="#f4b978" opacity="0.85"/><rect x="1353" y="678" width="9" height="13" fill="#2B6CB0" opacity="0.85"/><rect x="1353" y="746" width="9" height="13" fill="#f4b978" opacity="0.85"/><rect x="1353" y="780" width="9" height="13" fill="#f4b978" opacity="0.85"/><rect x="1353" y="814" width="9" height="13" fill="#f4b978" opacity="0.85"/><rect x="1379" y="746" width="9" height="13" fill="#f4b978" opacity="0.85"/><rect x="1379" y="780" width="9" height="13" fill="#f4b978" opacity="0.85"/><rect x="1379" y="814" width="9" height="13" fill="#2B6CB0" opacity="0.85"/><rect x="1405" y="746" width="9" height="13" fill="#f4b978" opacity="0.85"/><rect x="1405" y="814" width="9" height="13" fill="#f4b978" opacity="0.85"/><rect x="1449" y="513" width="77" height="421" fill="#101018"/><rect x="1457" y="631" width="9" height="13" fill="#f4b978" opacity="0.85"/><rect x="1457" y="665" width="9" height="13" fill="#2B6CB0" opacity="0.85"/><rect x="1483" y="529" width="9" height="13" fill="#f4b978" opacity="0.85"/><rect x="1483" y="631" width="9" height="13" fill="#f4b978" opacity="0.85"/><rect x="1483" y="665" width="9" height="13" fill="#f4b978" opacity="0.85"/><rect x="1483" y="733" width="9" height="13" fill="#f4b978" opacity="0.85"/><rect x="1483" y="767" width="9" height="13" fill="#f4b978" opacity="0.85"/><rect x="1483" y="801" width="9" height="13" fill="#f4b978" opacity="0.85"/><rect x="1536" y="804" width="118" height="130" fill="#101018"/><rect width="1600" height="1200" fill="url(#vig)"/><rect width="1600" height="1200" fill="#000" opacity="0.06" filter="url(#grain)"/></svg>
